# xmcd
#
# Track frame offsets: 
#        150
#        16463
#        36431
#        53569
#        72638
#        86175
#        105619
#        128831
#        139781
#        165191
#        199002
#        213714
#        238139
#        261544
#        284231
#        306094
#        319819
#
# Disc length: 4607 seconds
#
# Revision: 0
# Processed by: cddbd v1.5.1PL2 Copyright (c) Steve Scherf et al.
# Submitted via: ExactAudioCopy v0.95a5
#
DISCID=0c11fd11
DTITLE=Ronnie Lane - Aint No One Like Ronnie Lane [CD2)
DYEAR=1974
DGENRE=Acoustic
TTITLE0=Amelia Earhart's last flight
TTITLE1=Chicken wired
TTITLE2=Anymore for anymore
TTITLE3=How come
TTITLE4=Give me a penny
TTITLE5=Tin and tambourine
TTITLE6=You can never tell
TTITLE7=A little piece of nothing
TTITLE8=Annie had a baby
TTITLE9=Debris
TTITLE10=You're so rude
TTITLE11=Man smart woman smarter
TTITLE12=One for the road
TTITLE13=Stone
TTITLE14=Sweet Virginia
TTITLE15=Bombers moon
TTITLE16=Don't you cry for me
EXTD=
EXTT0=
EXTT1=
EXTT2=
EXTT3=
EXTT4=
EXTT5=
EXTT6=
EXTT7=
EXTT8=
EXTT9=
EXTT10=
EXTT11=
EXTT12=
EXTT13=
EXTT14=
EXTT15=
EXTT16=
PLAYORDER=
